<mxfile host="app.diagrams.net" modified="2021-12-29T01:59:56.828Z" agent="5.0 (Macintosh; Intel Mac OS X 10_15_7) AppleWebKit/537.36 (KHTML, like Gecko) Chrome/96.0.4664.93 Safari/537.36" etag="JASQV3Esje1F2Jnm3HeD" version="14.9.6" type="github">
  <diagram name="Page-1" id="74e2e168-ea6b-b213-b513-2b3c1d86103e">
    <mxGraphModel dx="885" dy="587" grid="1" gridSize="10" guides="1" tooltips="1" connect="1" arrows="1" fold="1" page="1" pageScale="1" pageWidth="1100" pageHeight="850" background="none" math="0" shadow="0">
      <root>
        <mxCell id="0" />
        <mxCell id="1" parent="0" />
        <mxCell id="77e6c97f196da883-1" value="原始需求" style="swimlane;html=1;childLayout=stackLayout;startSize=20;rounded=0;shadow=0;labelBackgroundColor=none;strokeWidth=1;fontFamily=Verdana;fontSize=8;align=center;" parent="1" vertex="1">
          <mxGeometry x="70" y="40" width="490" height="500" as="geometry" />
        </mxCell>
        <mxCell id="77e6c97f196da883-2" value="CS / FB / 脑暴" style="swimlane;html=1;startSize=20;" parent="77e6c97f196da883-1" vertex="1">
          <mxGeometry y="20" width="170" height="480" as="geometry">
            <mxRectangle y="20" width="30" height="730" as="alternateBounds" />
          </mxGeometry>
        </mxCell>
        <mxCell id="wit-_b2BQniI8PH7MqBV-6" value="&lt;span style=&quot;font-family: &amp;quot;verdana&amp;quot; ; font-size: 8px&quot;&gt;原始需求收集&lt;/span&gt;" style="rounded=1;whiteSpace=wrap;html=1;absoluteArcSize=1;arcSize=14;strokeWidth=2;fillColor=#dae8fc;strokeColor=#6c8ebf;fontColor=#003366;" vertex="1" parent="77e6c97f196da883-2">
          <mxGeometry x="30" y="80" width="100" height="50" as="geometry" />
        </mxCell>
        <mxCell id="wit-_b2BQniI8PH7MqBV-11" value="反馈" style="strokeWidth=2;html=1;shape=mxgraph.flowchart.terminator;whiteSpace=wrap;fillColor=#e1d5e7;strokeColor=#9673a6;fontColor=#330066;" vertex="1" parent="77e6c97f196da883-2">
          <mxGeometry x="35" y="390" width="100" height="40" as="geometry" />
        </mxCell>
        <mxCell id="77e6c97f196da883-3" value="原始需求池" style="swimlane;html=1;startSize=20;" parent="77e6c97f196da883-1" vertex="1">
          <mxGeometry x="170" y="20" width="160" height="480" as="geometry" />
        </mxCell>
        <mxCell id="wit-_b2BQniI8PH7MqBV-13" style="edgeStyle=orthogonalEdgeStyle;rounded=0;orthogonalLoop=1;jettySize=auto;html=1;exitX=0.5;exitY=1;exitDx=0;exitDy=0;entryX=0.5;entryY=0;entryDx=0;entryDy=0;" edge="1" parent="77e6c97f196da883-3" source="wit-_b2BQniI8PH7MqBV-7" target="wit-_b2BQniI8PH7MqBV-8">
          <mxGeometry relative="1" as="geometry" />
        </mxCell>
        <mxCell id="wit-_b2BQniI8PH7MqBV-7" value="&lt;font face=&quot;verdana&quot;&gt;&lt;span style=&quot;font-size: 8px&quot;&gt;分类，去重&lt;/span&gt;&lt;/font&gt;" style="rounded=1;whiteSpace=wrap;html=1;absoluteArcSize=1;arcSize=14;strokeWidth=2;fillColor=#dae8fc;strokeColor=#6c8ebf;fontColor=#003366;" vertex="1" parent="77e6c97f196da883-3">
          <mxGeometry x="30" y="80" width="100" height="50" as="geometry" />
        </mxCell>
        <mxCell id="wit-_b2BQniI8PH7MqBV-14" style="edgeStyle=orthogonalEdgeStyle;rounded=0;orthogonalLoop=1;jettySize=auto;html=1;exitX=0.5;exitY=1;exitDx=0;exitDy=0;entryX=0.5;entryY=0;entryDx=0;entryDy=0;entryPerimeter=0;" edge="1" parent="77e6c97f196da883-3" source="wit-_b2BQniI8PH7MqBV-8" target="wit-_b2BQniI8PH7MqBV-9">
          <mxGeometry relative="1" as="geometry" />
        </mxCell>
        <mxCell id="wit-_b2BQniI8PH7MqBV-8" value="&lt;font face=&quot;verdana&quot;&gt;&lt;span style=&quot;font-size: 8px&quot;&gt;价值分析&lt;/span&gt;&lt;/font&gt;" style="rounded=1;whiteSpace=wrap;html=1;absoluteArcSize=1;arcSize=14;strokeWidth=2;fillColor=#dae8fc;strokeColor=#6c8ebf;fontColor=#003366;" vertex="1" parent="77e6c97f196da883-3">
          <mxGeometry x="30" y="170" width="100" height="50" as="geometry" />
        </mxCell>
        <mxCell id="wit-_b2BQniI8PH7MqBV-9" value="加入正式规划" style="strokeWidth=2;html=1;shape=mxgraph.flowchart.decision;whiteSpace=wrap;fillColor=#fff2cc;strokeColor=#d6b656;fontColor=#663300;" vertex="1" parent="77e6c97f196da883-3">
          <mxGeometry x="20" y="260" width="120" height="70" as="geometry" />
        </mxCell>
        <mxCell id="77e6c97f196da883-5" value="产品需求池" style="swimlane;html=1;startSize=20;" parent="77e6c97f196da883-1" vertex="1">
          <mxGeometry x="330" y="20" width="160" height="480" as="geometry" />
        </mxCell>
        <mxCell id="wit-_b2BQniI8PH7MqBV-5" value="上线" style="strokeWidth=2;html=1;shape=mxgraph.flowchart.terminator;whiteSpace=wrap;fillColor=#e1d5e7;strokeColor=#9673a6;fontColor=#330066;" vertex="1" parent="77e6c97f196da883-5">
          <mxGeometry x="30" y="390" width="100" height="40" as="geometry" />
        </mxCell>
        <mxCell id="wit-_b2BQniI8PH7MqBV-18" style="edgeStyle=orthogonalEdgeStyle;rounded=0;orthogonalLoop=1;jettySize=auto;html=1;" edge="1" parent="77e6c97f196da883-5" source="wit-_b2BQniI8PH7MqBV-10" target="wit-_b2BQniI8PH7MqBV-5">
          <mxGeometry relative="1" as="geometry" />
        </mxCell>
        <mxCell id="wit-_b2BQniI8PH7MqBV-10" value="&lt;font face=&quot;verdana&quot;&gt;&lt;span style=&quot;font-size: 8px&quot;&gt;产研流程&lt;/span&gt;&lt;/font&gt;" style="rounded=1;whiteSpace=wrap;html=1;absoluteArcSize=1;arcSize=14;strokeWidth=2;fillColor=#dae8fc;strokeColor=#6c8ebf;fontColor=#003366;" vertex="1" parent="77e6c97f196da883-5">
          <mxGeometry x="30" y="270" width="100" height="50" as="geometry" />
        </mxCell>
        <mxCell id="wit-_b2BQniI8PH7MqBV-12" style="edgeStyle=orthogonalEdgeStyle;rounded=0;orthogonalLoop=1;jettySize=auto;html=1;entryX=0;entryY=0.5;entryDx=0;entryDy=0;" edge="1" parent="77e6c97f196da883-1" source="wit-_b2BQniI8PH7MqBV-6" target="wit-_b2BQniI8PH7MqBV-7">
          <mxGeometry relative="1" as="geometry" />
        </mxCell>
        <mxCell id="wit-_b2BQniI8PH7MqBV-15" value="Y" style="edgeStyle=orthogonalEdgeStyle;rounded=0;orthogonalLoop=1;jettySize=auto;html=1;exitX=1;exitY=0.5;exitDx=0;exitDy=0;exitPerimeter=0;entryX=0;entryY=0.5;entryDx=0;entryDy=0;" edge="1" parent="77e6c97f196da883-1" source="wit-_b2BQniI8PH7MqBV-9" target="wit-_b2BQniI8PH7MqBV-10">
          <mxGeometry relative="1" as="geometry" />
        </mxCell>
        <mxCell id="wit-_b2BQniI8PH7MqBV-16" value="N" style="edgeStyle=orthogonalEdgeStyle;rounded=0;orthogonalLoop=1;jettySize=auto;html=1;exitX=0;exitY=0.5;exitDx=0;exitDy=0;exitPerimeter=0;" edge="1" parent="77e6c97f196da883-1" source="wit-_b2BQniI8PH7MqBV-9" target="wit-_b2BQniI8PH7MqBV-11">
          <mxGeometry relative="1" as="geometry" />
        </mxCell>
      </root>
    </mxGraphModel>
  </diagram>
</mxfile>
